# xmcd
#
# Track frame offsets:
#	150
#	14367
#	28718
#	41123
#	54439
#	67256
#	80126
#	93022
#	108248
#	123537
#	136020
#	150070
#	164134
#	177793
#	190921
#	202781
#
# Disc length: 2870 seconds
#
# Revision: 1
# Processed by: cddbd v1.5.2PL0 Copyright (c) Steve Scherf et al.
# Submitted via: audiograbber 1.83.01
#
DISCID=ce0b3410
DTITLE=The Carter Family - Clinch Mountain Home
DYEAR=1900
DGENRE=
TTITLE0=Clinch Mountain Home
TTITLE1=Wildwood Flower
TTITLE2=Worried Man Blues
TTITLE3=Wabash Cannonball
TTITLE4=The Storms Are On The Ocean
TTITLE5=Little Log Cabin
TTITLE6=The Homestead On The Farm
TTITLE7=Diamonds In The Rough
TTITLE8=The Wandering Boy
TTITLE9=Anchored In Love
TTITLE10=Sweet Fern
TTITLE11=Bye And Bye
TTITLE12=I´m Thinking Tonight Of My Blue Eyes
TTITLE13=John Hardy
TTITLE14=River Of Jordan
TTITLE15=Single Girl, Married Girl
EXTD=
EXTT0=
EXTT1=
EXTT2=
EXTT3=
EXTT4=
EXTT5=
EXTT6=
EXTT7=
EXTT8=
EXTT9=
EXTT10=
EXTT11=
EXTT12=
EXTT13=
EXTT14=
EXTT15=
PLAYORDER=
